# xmcd CD database file
#
# Track frame offsets:
#	150
#	20807
#	46850
#
# Disc length: 897 seconds
#
# Revision: 0
# Processed by: cddbd v1.5.1PL0 Copyright (c) Steve Scherf et al.
# Submitted via: CDex 1.51
#
DISCID=1e037f03
DTITLE=松阪晶子 - 燃える瞳を持ち続けて
DYEAR=1994
DGENRE=JPop
TTITLE0=燃える瞳を持ち続けて
TTITLE1=一秒の未来
TTITLE2=燃える瞳を持ち続けて(karaoke)
EXTD=YEAR: 1994
EXTT0=
EXTT1=
EXTT2=
PLAYORDER=
